<svg width="30" height="30" xmlns="http://www.w3.org/2000/svg">

 <g>
  <title>background</title>
  <rect fill="none" id="canvas_background" height="402" width="582" y="-1" x="-1"/>
 </g>
 <g>
  <title>Layer 1</title>
  <path id="svg_1" d="m447.894,207.354"/>
  <path fill="#2cc0fe" id="svg_2" d="m456.389,198.592c0,0 -1.19,-1.19 -4.212,0c0,0 -5.861,-5.448 -11.538,1.282c0,0 -8.012,-0.183 -7.6,7.417c0,0 -9.478,5.54 0.504,10.027c0,0 4.395,6.685 10.256,1.557c0,0 7.509,5.586 10.256,-0.824c0,0 6.227,7.326 9.981,0.275c0,0 6.685,6.501 11.629,-0.641c0,0 12.091,4.53 11.355,-9.731c0,0 -2.198,-4.005 -5.036,-3.73c0,0 -1.74,-9.615 -8.791,-7.142c0,0 -8.516,-4.212 -12.362,1.19c-0.001,0 -3.449,-0.166 -4.442,0.32z" class="st0"/>
  <path fill="#b5e7fe" opacity="0.33" id="svg_3" d="m462.395,200.646c0,0 4.891,-6.325 9.298,0c0,0 6.838,-2.806 8.459,4.196c0.101,0.435 0,1.786 0,1.786s3.022,-0.069 4.739,2.335c0,0 1.648,8.104 -8.104,7.211c0,0 0.036,-0.57 -2.974,2.383l1.852,-0.873c0,0 7.917,3.022 11.387,-4.327c0,0 1.959,-6.387 -4.359,-9.134c0,0 -2.083,-9.546 -10.382,-7.005c0,0 -6.444,-4.876 -11.046,0.893c0,0 -2.678,1.292 0.824,2.535" class="st1"/>
  <path fill="#b5e7fe" opacity="0.33" id="svg_4" d="m454.02,201.805c0,0 -5.002,-7.52 -9.409,-0.939c0,0 -6.726,-1.981 -8.348,5.305c-0.101,0.453 0,1.858 0,1.858s-3.421,-0.391 -4.229,2.533c-0.807,2.918 -0.129,6.035 9.658,6.478c0.88,0.04 5.185,0.973 0.911,3.402c0,0 -0.538,-0.348 -0.739,-0.414c-3.054,-1.017 -7.005,-0.927 -11.69,-5.391c0,0 -0.932,-5.626 3.62,-7.978c0,0 -0.137,-7.337 10.31,-8.421c0,0 0.61,-4.583 13.693,0.98c0,0 0.031,1.293 -3.471,2.586" class="st1"/>
  <ellipse fill="#b5e7fe" opacity="0.33" id="svg_5" ry="6.288" rx="11.538" cy="202.789" cx="468.287" class="st1"/>
  <path fill="#b5e7fe" opacity="0.33" id="svg_6" d="m453.524,203.267c-2.015,1.899 -4.165,5.453 -9.304,5.453s-9.304,-2.441 -9.304,-5.453c0,-1.815 2.792,-2.729 5.723,-4.033c1.934,-0.86 3.635,-2.503 5.677,-2.503c5.139,-0.001 9.763,4.128 7.208,6.536z" class="st1"/>
  <path id="svg_7" d="m486.513,206.083c-0.927,-1.055 -1.867,-1.767 -2.96,-2.242c-0.2,-0.086 -0.401,-0.162 -0.607,-0.229c-0.564,-2.941 -1.856,-5.064 -3.85,-6.311c-1.912,-1.199 -3.968,-1.531 -6.076,-0.942c-0.725,-0.672 -1.567,-1.218 -2.462,-1.595c-2.402,-1.011 -5.142,-0.754 -7.522,0.696c-0.266,0.163 -0.522,0.34 -0.723,0.502c-0.76,0.533 -1.406,1.203 -1.893,1.959c-0.547,-0.068 -1.1,-0.083 -1.685,-0.047c-0.356,0.022 -0.711,0.091 -1.069,0.183c-1.679,-0.891 -3.461,-1.122 -5.28,-0.618c-0.694,-0.638 -1.496,-1.158 -2.346,-1.515c-2.303,-0.969 -4.936,-0.725 -7.224,0.669c-0.255,0.155 -0.499,0.325 -0.693,0.48c-0.724,0.508 -1.339,1.145 -1.805,1.864c-0.52,-0.064 -1.039,-0.077 -1.594,-0.043c-1.002,0.061 -1.988,0.403 -3.103,1.074c-1.453,0.876 -2.538,2.413 -3.138,4.448c-0.205,0.696 -0.296,1.459 -0.27,2.242c-1.261,0.403 -2.368,1.195 -3.112,2.244c-1.852,2.614 -1.579,6.073 0.635,8.046c1.068,0.952 2.462,1.451 3.98,1.372c0.954,1.484 2.315,2.565 3.803,3.004c1.287,0.378 2.42,0.45 3.469,0.221c1.19,-0.261 2.226,-0.786 3.152,-1.599c1.374,1.15 3.248,1.805 5.119,1.805c0.403,0 0.806,-0.03 1.204,-0.093c1.572,-0.247 3.051,-0.961 4.279,-2.065c0.812,0.786 1.741,1.383 2.74,1.676c1.34,0.395 2.522,0.471 3.61,0.231c1.251,-0.273 2.339,-0.827 3.307,-1.687c1.434,1.212 3.397,1.902 5.359,1.902c0.421,0 0.839,-0.031 1.253,-0.097c1.919,-0.3 3.696,-1.269 5.069,-2.754c2.938,1.219 6.466,0.786 8.812,-1.141c1.803,-1.479 2.994,-3.512 3.271,-5.579c0.309,-2.306 -0.292,-4.514 -1.65,-6.061zm-36.323,13.839c-1.926,0.297 -4,-0.348 -5.421,-1.802c-0.171,-0.181 -0.476,-0.215 -0.724,-0.206c-0.249,0.005 -0.548,0.187 -0.711,0.376c-0.798,0.818 -1.663,1.306 -2.721,1.539c-0.752,0.163 -1.602,0.1 -2.597,-0.191c-1.208,-0.356 -2.323,-1.327 -3.057,-2.666c-0.176,-0.321 -0.525,-0.509 -0.895,-0.447c-1.183,0.17 -2.334,-0.153 -3.157,-0.889c-1.76,-1.569 -1.504,-4.116 -0.371,-5.716c0.631,-0.89 1.642,-1.518 2.774,-1.727c0.46,-0.085 0.774,-0.516 0.713,-0.98c-0.106,-0.811 -0.056,-1.605 0.149,-2.3c0.329,-1.119 1.007,-2.625 2.359,-3.438c0.863,-0.52 1.595,-0.782 2.303,-0.825c0.621,-0.035 1.189,-0.003 1.775,0.113c0.39,0.078 0.775,-0.114 0.953,-0.464c0.355,-0.695 0.898,-1.313 1.611,-1.815c0.179,-0.141 0.365,-0.27 0.559,-0.388c1.801,-1.097 3.853,-1.298 5.628,-0.55c0.795,0.335 1.539,0.852 2.15,1.497c0.239,0.252 0.7,0.305 1.024,0.188c0.956,-0.34 1.914,-0.369 2.865,-0.152c-1.453,0.923 -2.548,2.484 -3.157,4.548c-0.216,0.734 -0.31,1.54 -0.28,2.364c-1.324,0.416 -2.487,1.245 -3.265,2.344c-1.926,2.717 -1.643,6.314 0.659,8.366c1.116,0.995 2.61,1.491 4.158,1.424c0.03,0.048 0.069,0.086 0.1,0.133c-0.009,0.008 -0.021,0.01 -0.03,0.018c-0.98,0.881 -2.153,1.451 -3.394,1.646zm36.23,-8.011c-0.219,1.631 -1.183,3.255 -2.644,4.454c-1.987,1.628 -5.084,1.896 -7.527,0.642c-0.365,-0.189 -0.826,-0.096 -1.088,0.233c-1.15,1.437 -2.721,2.375 -4.421,2.642c-2.045,0.313 -4.217,-0.367 -5.713,-1.899c-0.157,-0.167 -0.429,-0.204 -0.665,-0.204c-0.021,0 -0.043,0 -0.062,0.001c-0.251,0.006 -0.552,0.191 -0.715,0.381c-0.843,0.864 -1.756,1.379 -2.869,1.623c-0.792,0.174 -1.689,0.108 -2.737,-0.201c-1.275,-0.374 -2.451,-1.398 -3.225,-2.809c-0.175,-0.321 -0.524,-0.499 -0.895,-0.447c-1.257,0.175 -2.468,-0.164 -3.336,-0.938c-1.86,-1.659 -1.591,-4.349 -0.394,-6.038c0.665,-0.939 1.733,-1.604 2.928,-1.823c0.46,-0.085 0.775,-0.516 0.713,-0.981c-0.114,-0.853 -0.059,-1.691 0.157,-2.422c0.347,-1.178 1.06,-2.763 2.487,-3.624c0.906,-0.546 1.677,-0.822 2.428,-0.868c0.654,-0.044 1.251,-0.003 1.867,0.118c0.401,0.077 0.775,-0.114 0.953,-0.463c0.376,-0.734 0.949,-1.386 1.7,-1.914c0.187,-0.148 0.382,-0.284 0.588,-0.409c1.897,-1.155 4.056,-1.367 5.926,-0.578c0.841,0.354 1.625,0.898 2.262,1.575c0.238,0.251 0.702,0.3 1.03,0.188c1.661,-0.588 3.385,-0.367 4.996,0.643c1.663,1.043 2.721,2.946 3.142,5.654c0.056,0.354 0.32,0.64 0.67,0.721c0.298,0.07 0.592,0.164 0.878,0.288c0.856,0.372 1.577,0.924 2.337,1.79c1.023,1.162 1.472,2.863 1.229,4.665z"/>
  <path id="svg_9" d="m10.066,14.709"/>
  <path fill="#fce5ff" id="svg_10" d="m14.19,10.456c0,0 -0.578,-0.578 -2.045,0c0,0 -2.845,-2.645 -5.601,0.622c0,0 -3.889,-0.089 -3.689,3.601c0,0 -4.601,2.689 0.244,4.867c0,0 2.134,3.245 4.978,0.756c0,0 3.645,2.711 4.978,-0.4c0,0 3.023,3.556 4.845,0.133c0,0 3.245,3.156 5.645,-0.311c0,0 5.869,2.199 5.512,-4.724c0,0 -1.067,-1.944 -2.445,-1.811c0,0 -0.845,-4.667 -4.267,-3.467c0,0 -4.134,-2.045 -6.001,0.578c0.001,0 -1.672,-0.081 -2.154,0.156z" class="st0"/>
  <path fill="#fcfeff" opacity="0.33" id="svg_11" d="m17.105,11.453c0,0 2.374,-3.07 4.513,0c0,0 3.319,-1.362 4.106,2.037c0.049,0.211 0,0.867 0,0.867s1.467,-0.033 2.3,1.133c0,0 0.8,3.934 -3.934,3.5c0,0 0.018,-0.277 -1.444,1.157l0.899,-0.424c0,0 3.843,1.467 5.528,-2.1c0,0 0.951,-3.1 -2.116,-4.434c0,0 -1.011,-4.634 -5.04,-3.4c0,0 -3.128,-2.367 -5.362,0.433c0,0 -1.3,0.627 0.4,1.23" class="st1"/>
  <path fill="#fef2ff" opacity="0.33" id="svg_12" d="m13.04,12.015c0,0 -2.428,-3.651 -4.567,-0.456c0,0 -3.265,-0.962 -4.052,2.575c-0.049,0.22 0,0.902 0,0.902s-1.66,-0.19 -2.053,1.23c-0.392,1.417 -0.062,2.93 4.688,3.145c0.427,0.019 2.517,0.472 0.442,1.651c0,0 -0.261,-0.169 -0.359,-0.201c-1.482,-0.493 -3.4,-0.45 -5.675,-2.617c0,0 -0.452,-2.731 1.757,-3.873c0,0 -0.067,-3.562 5.005,-4.088c0,0 0.296,-2.225 6.647,0.476c0,0 0.015,0.628 -1.685,1.255" class="st1"/>
  <ellipse stroke="null" fill="#ffffff" opacity="0.33" id="svg_13" ry="1.984762" rx="3.466523" cy="16.761954" cx="12.423182" class="st1"/>
  <path stroke="null" fill="#fff9f9" opacity="0.33" id="svg_14" d="m9.11167,16.586973c-0.547913,0.617672 -1.132802,1.773295 -2.530036,1.773295s-2.530036,-0.793863 -2.530036,-1.773295c0,-0.590205 0.759123,-0.887652 1.556342,-1.311716c0.525504,-0.280029 0.98826,-0.81396 1.543457,-0.81396c1.397234,0 2.65497,1.342532 1.960274,2.125676z" class="st1"/>
  <path stroke="null" fill="#fef9ff" id="svg_15" d="m28.812,15.142353c-0.45,-0.441286 -0.906,-0.739499 -1.437,-0.937733c-0.097,-0.036199 -0.195,-0.068089 -0.295,-0.095669c-0.274,-1.230774 -0.901,-2.118517 -1.869,-2.639958c-0.928,-0.501618 -1.926,-0.640382 -2.949,-0.393882c-0.352,-0.280975 -0.761,-0.509375 -1.195,-0.6671c-1.166,-0.423186 -2.496,-0.31545 -3.652,0.291318c-0.129,0.068089 -0.253,0.142211 -0.351,0.2103c-0.369,0.223229 -0.682,0.503342 -0.919,0.819654c-0.266,-0.028442 -0.534,-0.034475 -0.818,-0.019823c-0.173,0.009481 -0.345,0.037923 -0.519,0.076708c-0.815,-0.373197 -1.68,-0.469728 -2.563,-0.258566c-0.337,-0.267185 -0.726,-0.48438 -1.139,-0.634348c-1.116,-0.405949 -2.395,-0.304246 -3.505,0.279251c-0.124,0.064641 -0.243,0.135316 -0.337,0.20082c-0.352,0.212024 -0.65,0.479209 -0.876,0.780007c-0.253,-0.026718 -0.504,-0.032752 -0.774,-0.0181c-0.487,0.025857 -0.965,0.16893 -1.506,0.449043c-0.705,0.366302 -1.232,1.010131 -1.523,1.860813c-0.099,0.291318 -0.144,0.610216 -0.131,0.937733c-0.612,0.16893 -1.15,0.499894 -1.511,0.938594c-0.899,1.093734 -0.766,2.540841 0.308,3.366529c0.518,0.398192 1.195,0.606768 1.932,0.574016c0.463,0.620558 1.124,1.073049 1.846,1.256631c0.625,0.157725 1.175,0.187891 1.684,0.092222c0.578,-0.10946 1.08,-0.328379 1.53,-0.668824c0.667,0.480933 1.577,0.755013 2.485,0.755013c0.196,0 0.391,-0.012928 0.584,-0.038785c0.763,-0.103426 1.481,-0.402501 2.077,-0.86361c0.394,0.328379 0.845,0.578326 1.33,0.701576c0.651,0.165482 1.224,0.197372 1.752,0.096531c0.607,-0.113769 1.136,-0.346478 1.605,-0.705885c0.696,0.506789 1.649,0.795521 2.601,0.795521c0.204,0 0.407,-0.012928 0.608,-0.040509c0.931,-0.125835 1.794,-0.530922 2.461,-1.152342c1.426,0.510237 3.139,0.328379 4.278,-0.477485c0.875,-0.618835 1.453,-1.469516 1.588,-2.333989c0.152,-0.964451 -0.14,-1.888393 -0.8,-2.53567zm-17.632,5.790154c-0.935,0.124112 -1.942,-0.145659 -2.632,-0.754151c-0.083,-0.075846 -0.231,-0.089636 -0.352,-0.086189c-0.121,0.002586 -0.266,0.078432 -0.345,0.156863c-0.388,0.342169 -0.807,0.546436 -1.321,0.643829c-0.365,0.068089 -0.778,0.041371 -1.261,-0.080155c-0.587,-0.149106 -1.128,-0.555055 -1.484,-1.115281c-0.085,-0.134454 -0.255,-0.212886 -0.434,-0.187029c-0.574,0.070675 -1.133,-0.06378 -1.533,-0.371473c-0.854,-0.656758 -0.73,-1.722049 -0.18,-2.391735c0.306,-0.372335 0.797,-0.63521 1.347,-0.722261c0.223,-0.035337 0.376,-0.216334 0.346,-0.410258c-0.052,-0.339583 -0.027,-0.67141 0.072,-0.961865c0.16,-0.468004 0.489,-1.098043 1.145,-1.438489c0.419,-0.218057 0.774,-0.327517 1.118,-0.345616c0.302,-0.014652 0.577,-0.001724 0.862,0.047404c0.189,0.032752 0.376,-0.047404 0.463,-0.193924c0.172,-0.291318 0.436,-0.549884 0.782,-0.759322c0.087,-0.058608 0.177,-0.112907 0.271,-0.162897c0.874,-0.458524 1.871,-0.542988 2.732,-0.230124c0.386,0.140487 0.747,0.356821 1.044,0.626591c0.116,0.10515 0.34,0.127559 0.497,0.078432c0.464,-0.142211 0.929,-0.154278 1.391,-0.06378c-0.706,0.386125 -1.237,1.039435 -1.532,1.902184c-0.105,0.306832 -0.151,0.644691 -0.136,0.989446c-0.643,0.174101 -1.207,0.520579 -1.585,0.980827c-0.935,1.136828 -0.798,2.641682 0.32,3.500121c0.542,0.416291 1.267,0.624006 2.019,0.595564c0.015,0.019823 0.034,0.036199 0.049,0.055161c-0.004,0.003448 -0.01,0.004309 -0.014,0.007757c-0.477,0.369749 -1.046,0.608492 -1.649,0.690371zm17.588,-3.351877c-0.106,0.682614 -0.574,1.361781 -1.284,1.863399c-0.965,0.68089 -2.468,0.792936 -3.654,0.268909c-0.177,-0.079294 -0.401,-0.039647 -0.528,0.097393c-0.558,0.600735 -1.321,0.993755 -2.146,1.104938c-0.993,0.131007 -2.047,-0.153416 -2.773,-0.794659c-0.076,-0.069813 -0.208,-0.085327 -0.323,-0.085327c-0.01,0 -0.021,0 -0.03,0.000862c-0.122,0.002586 -0.268,0.080155 -0.347,0.159449c-0.409,0.36113 -0.852,0.576602 -1.393,0.679167c-0.384,0.072398 -0.82,0.04568 -1.329,-0.083603c-0.619,-0.156863 -1.19,-0.585221 -1.565,-1.175613c-0.085,-0.134454 -0.254,-0.208577 -0.434,-0.187029c-0.61,0.07326 -1.198,-0.068951 -1.619,-0.392158c-0.903,-0.693819 -0.773,-1.819442 -0.191,-2.526189c0.323,-0.39302 0.841,-0.67141 1.422,-0.76277c0.223,-0.035337 0.376,-0.216334 0.346,-0.410258c-0.055,-0.356821 -0.029,-0.707609 0.076,-1.013579c0.168,-0.492999 0.515,-1.15579 1.207,-1.516058c0.44,-0.2284 0.814,-0.343893 1.179,-0.362854c0.317,-0.0181 0.607,-0.001724 0.906,0.049128c0.195,0.032752 0.376,-0.047404 0.463,-0.193924c0.182,-0.306832 0.46,-0.58005 0.825,-0.800693c0.091,-0.062056 0.185,-0.11894 0.285,-0.170654c0.921,-0.482656 1.969,-0.572293 2.876,-0.24219c0.408,0.148244 0.789,0.375783 1.098,0.659343c0.116,0.10515 0.341,0.125835 0.5,0.078432c0.806,-0.245638 1.643,-0.153416 2.425,0.268909c0.807,0.436115 1.321,1.232498 1.525,2.365878c0.027,0.148244 0.155,0.267185 0.325,0.30166c0.145,0.029304 0.288,0.068951 0.426,0.120664c0.416,0.156001 0.766,0.386987 1.135,0.748979c0.497,0.48438 0.714,1.196298 0.597,1.950449z"/>
 </g>
</svg>